<svg width="96" height="16" viewBox="0 0 96 16" fill="none" xmlns="http://www.w3.org/2000/svg">
<path fill-rule="evenodd" clip-rule="evenodd" d="M7.38981 0.86067C7.56768 0.735618 7.78055 0.666672 8.00119 0.666672C8.22183 0.666672 8.43469 0.735618 8.61257 0.86067C8.78945 0.985023 8.92261 1.15817 8.99994 1.35477L9.00068 1.35667L10.4906 5.11228L14.3467 5.43599C15.3437 5.51975 15.6427 6.74674 14.97 7.35032L12.0102 10.0081L12.9166 13.9891C12.9633 14.1939 12.9513 14.4088 12.8812 14.6075C12.8111 14.8064 12.6845 14.9839 12.5129 15.1146C12.3408 15.2455 12.1319 15.3226 11.9123 15.3317C11.6927 15.3407 11.4777 15.2811 11.2951 15.164L8.00121 13.0562L4.70732 15.1647C4.52465 15.2819 4.30969 15.3415 4.09007 15.3324C3.8705 15.3234 3.6616 15.2463 3.48952 15.1153C3.31784 14.9847 3.19131 14.8071 3.12116 14.6082C3.05111 14.4096 3.03901 14.1949 3.08568 13.9901L3.99219 10.0081L1.03232 7.3503L1.03144 7.34951C0.872033 7.20586 0.760521 7.01968 0.706232 6.81666C0.65198 6.61377 0.656114 6.39911 0.718356 6.19834C0.780648 5.99741 0.899663 5.81556 1.06517 5.67834C1.23106 5.5408 1.43582 5.4549 1.65432 5.4361L5.51176 5.11228L6.99601 1.37175C6.99784 1.3667 6.99974 1.36167 7.0017 1.35667C7.0789 1.15929 7.21235 0.985424 7.38981 0.86067ZM4.09438 10.0998L4.09344 10.099L4.09438 10.0998Z" fill="#F9986A"/>
<path fill-rule="evenodd" clip-rule="evenodd" d="M27.3898 0.86067C27.5677 0.735618 27.7805 0.666672 28.0012 0.666672C28.2218 0.666672 28.4347 0.735618 28.6126 0.86067C28.7895 0.985023 28.9226 1.15817 28.9999 1.35477L29.0007 1.35667L30.4906 5.11228L34.3467 5.43599C35.3437 5.51975 35.6427 6.74674 34.97 7.35032L32.0102 10.0081L32.9166 13.9891C32.9633 14.1939 32.9513 14.4088 32.8812 14.6075C32.8111 14.8064 32.6845 14.9839 32.5129 15.1146C32.3408 15.2455 32.1319 15.3226 31.9123 15.3317C31.6927 15.3407 31.4777 15.2811 31.2951 15.164L28.0012 13.0562L24.7073 15.1647C24.5246 15.2819 24.3097 15.3415 24.0901 15.3324C23.8705 15.3234 23.6616 15.2463 23.4895 15.1153C23.3178 14.9847 23.1913 14.8071 23.1212 14.6082C23.0511 14.4096 23.039 14.1949 23.0857 13.9901L23.9922 10.0081L21.0323 7.3503L21.0314 7.34951C20.872 7.20586 20.7605 7.01968 20.7062 6.81666C20.652 6.61377 20.6561 6.39911 20.7184 6.19834C20.7806 5.99741 20.8997 5.81556 21.0652 5.67834C21.2311 5.5408 21.4358 5.4549 21.6543 5.4361L25.5118 5.11228L26.996 1.37175C26.9978 1.3667 26.9997 1.36167 27.0017 1.35667C27.0789 1.15929 27.2124 0.985424 27.3898 0.86067ZM24.0944 10.0998L24.0934 10.099L24.0944 10.0998Z" fill="#F9986A"/>
<path fill-rule="evenodd" clip-rule="evenodd" d="M47.3898 0.86067C47.5677 0.735618 47.7805 0.666672 48.0012 0.666672C48.2218 0.666672 48.4347 0.735618 48.6126 0.86067C48.7895 0.985023 48.9226 1.15817 48.9999 1.35477L49.0007 1.35667L50.4906 5.11228L54.3467 5.43599C55.3437 5.51975 55.6427 6.74674 54.97 7.35032L52.0102 10.0081L52.9166 13.9891C52.9633 14.1939 52.9513 14.4088 52.8812 14.6075C52.8111 14.8064 52.6845 14.9839 52.5129 15.1146C52.3408 15.2455 52.1319 15.3226 51.9123 15.3317C51.6927 15.3407 51.4777 15.2811 51.2951 15.164L48.0012 13.0562L44.7073 15.1647C44.5246 15.2819 44.3097 15.3415 44.0901 15.3324C43.8705 15.3234 43.6616 15.2463 43.4895 15.1153C43.3178 14.9847 43.1913 14.8071 43.1212 14.6082C43.0511 14.4096 43.039 14.1949 43.0857 13.9901L43.9922 10.0081L41.0323 7.3503L41.0314 7.34951C40.872 7.20586 40.7605 7.01968 40.7062 6.81666C40.652 6.61377 40.6561 6.39911 40.7184 6.19834C40.7806 5.99741 40.8997 5.81556 41.0652 5.67834C41.2311 5.5408 41.4358 5.4549 41.6543 5.4361L45.5118 5.11228L46.996 1.37175C46.9978 1.3667 46.9997 1.36167 47.0017 1.35667C47.0789 1.15929 47.2124 0.985424 47.3898 0.86067ZM44.0944 10.0998L44.0934 10.099L44.0944 10.0998Z" fill="#F9986A"/>
<path fill-rule="evenodd" clip-rule="evenodd" d="M67.3898 0.86067C67.5677 0.735618 67.7805 0.666672 68.0012 0.666672C68.2218 0.666672 68.4347 0.735618 68.6126 0.86067C68.7895 0.985023 68.9226 1.15817 68.9999 1.35477L69.0007 1.35667L70.4906 5.11228L74.3467 5.43599C75.3437 5.51975 75.6427 6.74674 74.97 7.35032L72.0102 10.0081L72.9166 13.9891C72.9633 14.1939 72.9513 14.4088 72.8812 14.6075C72.8111 14.8064 72.6845 14.9839 72.5129 15.1146C72.3408 15.2455 72.1319 15.3226 71.9123 15.3317C71.6927 15.3407 71.4777 15.2811 71.2951 15.164L68.0012 13.0562L64.7073 15.1647C64.5246 15.2819 64.3097 15.3415 64.0901 15.3324C63.8705 15.3234 63.6616 15.2463 63.4895 15.1153C63.3178 14.9847 63.1913 14.8071 63.1212 14.6082C63.0511 14.4096 63.039 14.1949 63.0857 13.9901L63.9922 10.0081L61.0323 7.3503L61.0314 7.34951C60.872 7.20586 60.7605 7.01968 60.7062 6.81666C60.652 6.61377 60.6561 6.39911 60.7184 6.19834C60.7806 5.99741 60.8997 5.81556 61.0652 5.67834C61.2311 5.5408 61.4358 5.4549 61.6543 5.4361L65.5118 5.11228L66.996 1.37175C66.9978 1.3667 66.9997 1.36167 67.0017 1.35667C67.0789 1.15929 67.2124 0.985424 67.3898 0.86067ZM64.0944 10.0998L64.0934 10.099L64.0944 10.0998Z" fill="#F9986A"/>
<path fill-rule="evenodd" clip-rule="evenodd" d="M87.3898 0.86067C87.5677 0.735618 87.7805 0.666672 88.0012 0.666672C88.2218 0.666672 88.4347 0.735618 88.6126 0.86067C88.7895 0.985023 88.9226 1.15817 88.9999 1.35477L89.0007 1.35667L90.4906 5.11228L94.3467 5.43599C95.3437 5.51975 95.6427 6.74674 94.97 7.35032L92.0102 10.0081L92.9166 13.9891C92.9633 14.1939 92.9513 14.4088 92.8812 14.6075C92.8111 14.8064 92.6845 14.9839 92.5129 15.1146C92.3408 15.2455 92.1319 15.3226 91.9123 15.3317C91.6927 15.3407 91.4777 15.2811 91.2951 15.164L88.0012 13.0562L84.7073 15.1647C84.5246 15.2819 84.3097 15.3415 84.0901 15.3324C83.8705 15.3234 83.6616 15.2463 83.4895 15.1153C83.3178 14.9847 83.1913 14.8071 83.1212 14.6082C83.0511 14.4096 83.039 14.1949 83.0857 13.9901L83.9922 10.0081L81.0323 7.3503L81.0314 7.34951C80.872 7.20586 80.7605 7.01968 80.7062 6.81666C80.652 6.61377 80.6561 6.39911 80.7184 6.19834C80.7806 5.99741 80.8997 5.81556 81.0652 5.67834C81.2311 5.5408 81.4358 5.4549 81.6543 5.4361L85.5118 5.11228L86.996 1.37175C86.9978 1.3667 86.9997 1.36167 87.0017 1.35667C87.0789 1.15929 87.2124 0.985424 87.3898 0.86067ZM84.0944 10.0998L84.0934 10.099L84.0944 10.0998Z" fill="#F9986A"/>
</svg>
