<svg width="24" height="24" viewBox="0 0 24 24" fill="none" xmlns="http://www.w3.org/2000/svg"><path d="M19.5001 24C19.3002 24.0002 19.1049 23.9404 18.9393 23.8285C18.7737 23.7165 18.6455 23.5576 18.5711 23.372L17.7271 21.259L15.6111 20.368C15.4296 20.2879 15.2758 20.1559 15.1691 19.9886C15.0623 19.8213 15.0074 19.6263 15.0111 19.4279C15.0149 19.2295 15.0771 19.0366 15.1901 18.8735C15.3031 18.7104 15.4617 18.5843 15.6461 18.511L17.7341 17.72L18.5711 15.628C18.6481 15.4452 18.7773 15.2892 18.9425 15.1794C19.1078 15.0697 19.3018 15.0112 19.5001 15.0112C19.6985 15.0112 19.8924 15.0697 20.0577 15.1794C20.2229 15.2892 20.3521 15.4452 20.4291 15.628L21.2701 17.728L23.3701 18.569C23.5533 18.6456 23.7097 18.7747 23.8198 18.94C23.9298 19.1053 23.9885 19.2994 23.9885 19.498C23.9885 19.6966 23.9298 19.8907 23.8198 20.056C23.7097 20.2213 23.5533 20.3504 23.3701 20.427L21.2701 21.268L20.4291 23.368C20.3554 23.5543 20.2274 23.7141 20.0618 23.8268C19.8961 23.9395 19.7005 23.9999 19.5001 24ZM10.0001 21C9.56808 21.0052 9.14599 20.8704 8.797 20.6156C8.44801 20.3609 8.19089 20.0001 8.06411 19.587L6.45011 14.54L1.38711 12.846C0.978473 12.7094 0.623828 12.4465 0.374398 12.0952C0.124968 11.7439 -0.00633631 11.3223 -0.00054901 10.8915C0.0052383 10.4607 0.147817 10.0429 0.406595 9.69839C0.665372 9.3539 1.02695 9.10058 1.43911 8.97502L6.46211 7.44102L8.15411 2.38702C8.27991 1.97189 8.54014 1.61035 8.89386 1.35927C9.24758 1.1082 9.67472 0.981818 10.1081 1.00002C10.5402 1.0006 10.9605 1.14111 11.3061 1.40052C11.6516 1.65992 11.9039 2.02426 12.0251 2.43902L13.5571 7.45402L18.5871 9.06402C18.9928 9.2001 19.3455 9.4602 19.5954 9.80759C19.8453 10.155 19.9798 10.5721 19.9798 11C19.9798 11.4279 19.8453 11.8451 19.5954 12.1924C19.3455 12.5398 18.9928 12.7999 18.5871 12.936L13.5481 14.548L11.9361 19.587C11.8093 20.0001 11.5522 20.3609 11.2032 20.6156C10.8542 20.8704 10.4321 21.0052 10.0001 21ZM20.5001 7.00002C20.2772 7.00001 20.0606 6.92552 19.8849 6.78836C19.7092 6.65121 19.5843 6.45926 19.5301 6.24302L19.1731 4.81302L17.7401 4.42802C17.5247 4.37015 17.3349 4.24194 17.2007 4.06378C17.0666 3.88562 16.9958 3.66773 16.9997 3.44474C17.0036 3.22176 17.082 3.00648 17.2223 2.83313C17.3626 2.65978 17.5568 2.5383 17.7741 2.48802L19.1741 2.16302L19.5301 0.757017C19.5843 0.54079 19.7092 0.348869 19.8849 0.211736C20.0607 0.0746033 20.2772 0.00012207 20.5001 0.00012207C20.723 0.00012207 20.9396 0.0746033 21.1153 0.211736C21.291 0.348869 21.4159 0.54079 21.4701 0.757017L21.8241 2.17502L23.2421 2.53002C23.4583 2.58421 23.6503 2.70909 23.7874 2.88484C23.9245 3.06058 23.999 3.2771 23.999 3.50002C23.999 3.72293 23.9245 3.93946 23.7874 4.1152C23.6503 4.29094 23.4583 4.41583 23.2421 4.47002L21.8241 4.82502L21.4701 6.24302C21.4159 6.45926 21.2911 6.65121 21.1153 6.78836C20.9396 6.92552 20.723 7.00001 20.5001 7.00002Z" fill="#fff"></path></svg>