<svg width="40" height="30" viewBox="0 0 40 30" fill="none" xmlns="http://www.w3.org/2000/svg">
<path d="M9.43633 30C7.65484 30 6.04036 29.5211 4.5929 28.5634C3.20111 27.6056 2.08768 26.2817 1.25261 24.5916C0.417536 22.8451 0 20.8451 0 18.5916C0 16.5634 0.361865 14.5916 1.08559 12.6761C1.80932 10.7042 2.83925 8.87324 4.17536 7.1831C5.56715 5.49296 7.18163 4.02817 9.01879 2.78873C10.8559 1.49296 12.8601 0.56338 15.0313 0L19.3737 5.40845C16.9241 6.3662 14.9756 7.66197 13.5282 9.29578C12.0807 10.9296 11.357 12.3099 11.357 13.4366C11.357 13.9437 11.4683 14.507 11.691 15.1268C11.9694 15.6901 12.6374 16.2817 13.6952 16.9014C15.087 17.8028 16.0612 18.7887 16.618 19.8592C17.1747 20.8732 17.453 22.0563 17.453 23.4085C17.453 25.4366 16.7015 27.0423 15.1983 28.2254C13.6952 29.4084 11.7745 30 9.43633 30ZM30.0626 30C28.2811 30 26.6667 29.5211 25.2192 28.5634C23.8274 27.6056 22.714 26.2817 21.8789 24.5916C21.0438 22.8451 20.6263 20.8451 20.6263 18.5916C20.6263 16.5634 20.9882 14.5916 21.7119 12.6761C22.4356 10.7042 23.4656 8.87324 24.8017 7.1831C26.1935 5.49296 27.8079 4.02817 29.6451 2.78873C31.4823 1.49296 33.4864 0.56338 35.6576 0L40 5.40845C37.5504 6.3662 35.6019 7.66197 34.1545 9.29578C32.707 10.9296 31.9833 12.3099 31.9833 13.4366C31.9833 13.9437 32.0946 14.507 32.3173 15.1268C32.5957 15.6901 33.2637 16.2817 34.3215 16.9014C35.7133 17.8028 36.6875 18.7887 37.2443 19.8592C37.801 20.8732 38.0793 22.0563 38.0793 23.4085C38.0793 25.4366 37.3278 27.0423 35.8246 28.2254C34.3215 29.4084 32.4008 30 30.0626 30Z" fill="#F9A6C4"></path></svg>